<svg width="758" height="529" viewBox="0 0 758 529" fill="none" xmlns="http://www.w3.org/2000/svg">
<path d="M112 6.64999C127.4 6.64999 139.65 8.98332 148.75 13.65C159.717 19.25 168.117 26.95 173.95 36.75C180.017 46.55 183.05 57.5167 183.05 69.65C183.05 81.0833 180.017 91.7 173.95 101.5C167.883 111.067 159.6 118.65 149.1 124.25C161.7 128.683 172.317 136.383 180.95 147.35C189.583 158.317 193.9 170.683 193.9 184.45C193.9 196.583 190.75 207.783 184.45 218.05C178.383 228.083 170.217 236.017 159.95 241.85C154.817 244.65 149.1 246.75 142.8 248.15C136.5 249.55 128.1 250.25 117.6 250.25H9.79998V6.64999H112ZM178.932 101.5C178.932 83.3 183.482 66.3833 192.582 50.75C201.682 35.1167 213.932 22.75 229.332 13.65C244.965 4.54999 261.999 -4.05312e-06 280.432 -4.05312e-06C298.865 -4.05312e-06 315.782 4.54999 331.182 13.65C346.815 22.75 359.182 35.1167 368.282 50.75C377.382 66.3833 381.932 83.3 381.932 101.5V155.4C381.932 173.6 377.382 190.517 368.282 206.15C359.182 221.783 346.815 234.15 331.182 243.25C315.782 252.35 298.865 256.9 280.432 256.9C261.999 256.9 244.965 252.35 229.332 243.25C213.932 234.15 201.682 221.783 192.582 206.15C183.482 190.517 178.932 173.6 178.932 155.4V101.5ZM242.632 155.4C242.632 166.6 246.132 176.167 253.132 184.1C260.132 192.033 269.232 196 280.432 196C291.399 196 300.382 192.033 307.382 184.1C314.382 176.167 317.882 166.6 317.882 155.4V101.15C317.882 89.7167 314.382 80.15 307.382 72.45C300.382 64.75 291.399 60.9 280.432 60.9C269.232 60.9 260.132 64.75 253.132 72.45C246.132 80.15 242.632 89.7167 242.632 101.15V155.4ZM459.714 250.25V68.25H367.664V6.64999H564.364V68.25H472.314V250.25H459.714ZM757.996 188.3V250.25H572.496V6.64999H585.446V188.3H757.996ZM-2.19941e-05 522.9V279.3H13.65L183.75 444.85V279.3H196.7V522.9H-2.19941e-05ZM201.682 341.25V279.65H359.182V341.25H286.732V461.65H359.182V523.25H201.682V461.65H274.132V341.25H201.682ZM566.464 431.2C566.697 461.767 557.947 485.683 540.214 502.95C522.481 519.983 498.097 528.5 467.064 528.5C448.631 528.5 431.597 524.3 415.964 515.9C400.564 507.5 388.314 495.6 379.214 480.2C370.114 464.8 365.564 447.067 365.564 427V375.9C365.564 356.067 369.881 338.45 378.514 323.05C387.381 307.65 399.397 295.75 414.564 287.35C429.964 278.717 447.114 274.4 466.014 274.4C497.047 274.4 521.314 282.917 538.814 299.95C556.547 316.75 565.531 340.55 565.764 371.35H502.764C502.531 359.45 499.264 350.233 492.964 343.7C486.897 337.167 477.914 333.9 466.014 333.9C455.281 333.9 446.414 337.283 439.414 344.05C432.414 350.817 428.914 360.383 428.914 372.75V429.8C428.914 442.167 432.531 451.85 439.764 458.85C447.231 465.617 456.331 469 467.064 469C491.564 469 503.814 456.4 503.814 431.2H566.464ZM655.096 381.15L756.596 523.25H560.596V279.65H756.596L655.096 381.15ZM645.996 390.25L573.546 462.7V510.3H731.746L645.996 390.25Z" fill="white"/>
</svg>
