<svg width="1440" height="1024" viewBox="0 0 1440 1024" fill="none" xmlns="http://www.w3.org/2000/svg">
<path d="M541.525 244.16C534.378 244.16 527.712 245.973 521.525 249.6C515.445 253.12 510.592 257.973 506.965 264.16C503.338 270.24 501.525 276.907 501.525 284.16V305.28C501.525 312.853 502.592 319.093 504.725 324C507.712 330.933 512.245 336.587 518.325 340.96C524.405 345.333 531.232 347.787 538.805 348.32V296.32H587.605V306.88C587.605 313.707 586.592 319.787 584.565 325.12C581.258 333.973 575.712 341.067 567.925 346.4C560.138 351.733 551.338 354.4 541.525 354.4C532.245 354.4 523.765 351.893 516.085 346.88C508.512 341.76 502.965 334.987 499.445 326.56C496.885 320.587 495.605 313.493 495.605 305.28V284.16C495.605 275.84 497.632 268.16 501.685 261.12C505.845 254.08 511.445 248.533 518.485 244.48C525.525 240.32 533.205 238.24 541.525 238.24C548.458 238.24 554.805 239.413 560.565 241.76C566.325 244 571.232 247.307 575.285 251.68C578.592 255.307 581.258 259.36 583.285 263.84C585.418 268.32 586.485 272.853 586.485 277.44H580.725C580.618 273.493 579.605 269.6 577.685 265.76C575.872 261.92 573.525 258.453 570.645 255.36C563.498 247.893 553.792 244.16 541.525 244.16ZM581.685 302.08H544.565V348.32C552.245 347.787 559.125 345.387 565.205 341.12C571.392 336.747 575.925 330.987 578.805 323.84C580.725 318.827 581.685 313.173 581.685 306.88V302.08ZM713.243 352H608.283L660.763 238.24L713.243 352ZM617.563 346.08H703.963L660.763 252.32L617.563 346.08ZM734.24 240.48H740.64L779.52 309.28L818.24 240.48H824.16V351.84H734.24V240.48ZM740.16 346.08H818.24V252.48L782.24 315.84H776.64L740.16 251.52V346.08ZM857.638 240.64H938.758V268.8H886.758V282.88H929.958V309.6H886.758V323.84H938.758V352H857.638V240.64ZM495.925 444C495.925 435.68 498.005 427.947 502.165 420.8C506.325 413.653 511.925 408 518.965 403.84C526.112 399.68 533.898 397.6 542.325 397.6C550.752 397.6 558.485 399.68 565.525 403.84C572.672 408 578.325 413.653 582.485 420.8C586.645 427.947 588.725 435.68 588.725 444V468.64C588.725 476.96 586.645 484.693 582.485 491.84C578.325 498.987 572.672 504.64 565.525 508.8C558.485 512.96 550.752 515.04 542.325 515.04C533.898 515.04 526.112 512.96 518.965 508.8C511.925 504.64 506.325 498.987 502.165 491.84C498.005 484.693 495.925 476.96 495.925 468.64V444ZM525.045 468.64C525.045 473.76 526.645 478.133 529.845 481.76C533.045 485.387 537.205 487.2 542.325 487.2C547.338 487.2 551.445 485.387 554.645 481.76C557.845 478.133 559.445 473.76 559.445 468.64V443.84C559.445 438.613 557.845 434.24 554.645 430.72C551.445 427.2 547.338 425.44 542.325 425.44C537.205 425.44 533.045 427.2 529.845 430.72C526.645 434.24 525.045 438.613 525.045 443.84V468.64ZM608.283 400.48H713.243L660.763 514.24L608.283 400.48ZM660.763 500.16L704.123 406.4H617.563L660.763 500.16ZM739.2 400.64H820.32V428.8H768.32V442.88H811.52V469.6H768.32V483.84H820.32V512H739.2V400.64ZM943.718 512H858.118V400.64H901.478C910.758 400.64 918.331 402.293 924.198 405.6C929.958 408.8 934.438 413.173 937.638 418.72C940.838 424.267 942.438 430.4 942.438 437.12C942.438 445.44 939.878 452.907 934.758 459.52C929.638 466.027 923.184 470.347 915.398 472.48L943.718 512ZM868.198 406.56L911.718 467.36C918.864 465.867 924.784 462.293 929.478 456.64C934.171 450.987 936.518 444.48 936.518 437.12C936.518 431.253 935.078 425.92 932.198 421.12C929.318 416.32 925.264 412.64 920.038 410.08C915.344 407.733 909.211 406.56 901.638 406.56H868.198ZM864.038 410.4V467.84H905.158L864.038 410.4ZM864.038 506.08H932.517L909.158 473.6L904.198 473.76H864.038V506.08Z" fill="white"/>
<path d="M574.036 628.396C571.926 628.396 570.022 628.073 568.323 627.429C566.624 626.784 565.269 625.773 564.258 624.396C563.262 623.02 562.764 621.232 562.764 619.035H566.741C566.741 620.603 567.078 621.833 567.751 622.727C568.44 623.62 569.348 624.25 570.476 624.616C571.604 624.982 572.842 625.166 574.189 625.166C575.435 625.166 576.57 624.982 577.595 624.616C578.635 624.235 579.463 623.671 580.078 622.924C580.693 622.163 581.001 621.188 581.001 620.002C581.001 618.977 580.759 618.134 580.276 617.475C579.792 616.816 578.987 616.245 577.859 615.761C576.746 615.263 575.244 614.772 573.354 614.289C571.128 613.703 569.297 613.066 567.861 612.377C566.426 611.674 565.356 610.803 564.653 609.763C563.965 608.723 563.621 607.404 563.621 605.808C563.621 604.123 564.016 602.709 564.807 601.567C565.598 600.41 566.733 599.531 568.213 598.93C569.692 598.33 571.45 598.029 573.486 598.029C575.391 598.029 577.134 598.337 578.716 598.952C580.298 599.567 581.558 600.49 582.495 601.721C583.447 602.951 583.923 604.482 583.923 606.313H579.968C579.983 604.643 579.368 603.383 578.123 602.534C576.877 601.669 575.339 601.237 573.508 601.237C571.619 601.237 570.146 601.618 569.092 602.38C568.052 603.127 567.532 604.226 567.532 605.676C567.532 606.54 567.759 607.265 568.213 607.851C568.667 608.422 569.443 608.942 570.542 609.411C571.655 609.88 573.201 610.371 575.178 610.883C577.463 611.499 579.316 612.158 580.737 612.861C582.173 613.564 583.228 614.465 583.901 615.563C584.575 616.662 584.912 618.105 584.912 619.892C584.912 621.796 584.436 623.378 583.484 624.638C582.532 625.883 581.235 626.821 579.595 627.451C577.954 628.081 576.101 628.396 574.036 628.396ZM594.558 628V601.743H586.143V598.425H606.885V601.743H598.491V628H594.558ZM605.391 628L616.465 598.425H620.64L631.56 628H627.473L624.661 619.716H612.4L609.456 628H605.391ZM613.477 616.398H623.54L618.53 602.358L613.477 616.398ZM639.514 628V616.223L629.385 598.425H633.735L641.536 612.707L649.292 598.425H653.665L643.513 616.223V628H639.514ZM666.694 628V598.425H670.649V610.839H686.821V598.425H690.732V628H686.821V614.267H670.649V628H666.694ZM704.773 628V616.223L694.644 598.425H698.994L706.794 612.707L714.551 598.425H718.923L708.772 616.223V628H704.773ZM722.812 628V598.425H732.766C735.857 598.425 738.494 599.011 740.676 600.183C742.859 601.34 744.521 603.024 745.664 605.236C746.807 607.448 747.378 610.107 747.378 613.212C747.378 616.333 746.799 618.999 745.642 621.21C744.5 623.422 742.837 625.107 740.654 626.264C738.472 627.421 735.842 628 732.766 628H722.812ZM726.768 624.682H731.887C734.48 624.682 736.619 624.272 738.303 623.452C739.988 622.617 741.24 621.35 742.061 619.65C742.896 617.937 743.313 615.783 743.313 613.19C743.313 610.612 742.888 608.481 742.039 606.796C741.204 605.097 739.937 603.83 738.237 602.995C736.553 602.16 734.436 601.743 731.887 601.743H726.768V624.682ZM753.706 628V598.425H764.89C766.604 598.425 768.157 598.696 769.548 599.238C770.955 599.78 772.075 600.629 772.91 601.787C773.745 602.944 774.163 604.445 774.163 606.291C774.163 608.166 773.635 609.763 772.581 611.081C771.541 612.399 770.01 613.293 767.988 613.762C769.102 613.923 770.017 614.282 770.735 614.838C771.453 615.395 772.046 616.149 772.515 617.102C772.998 618.039 773.416 619.204 773.767 620.595L775.701 628H771.658L769.966 621.21C769.673 619.995 769.321 618.962 768.911 618.112C768.516 617.248 767.981 616.596 767.307 616.157C766.633 615.703 765.732 615.476 764.604 615.476H757.661V628H753.706ZM757.661 612.18H764.385C765.469 612.18 766.45 611.975 767.329 611.564C768.208 611.154 768.904 610.561 769.417 609.785C769.944 609.008 770.208 608.071 770.208 606.972C770.208 605.317 769.717 604.028 768.735 603.105C767.769 602.182 766.355 601.721 764.495 601.721H757.661V612.18ZM777.129 628L788.203 598.425H792.378L803.298 628H799.211L796.399 619.716H784.138L781.194 628H777.129ZM785.215 616.398H795.278L790.269 602.358L785.215 616.398ZM810.242 628V601.743H801.826V598.425H822.568V601.743H814.175V628H810.242ZM826.831 628V598.425H845.706V601.721H830.786V611.147H844.519V614.399H830.786V624.704H845.706V628H826.831ZM851.88 628V598.425H861.833C864.924 598.425 867.561 599.011 869.744 600.183C871.926 601.34 873.589 603.024 874.731 605.236C875.874 607.448 876.445 610.107 876.445 613.212C876.445 616.333 875.867 618.999 874.709 621.21C873.567 623.422 871.904 625.107 869.722 626.264C867.539 627.421 864.91 628 861.833 628H851.88ZM855.835 624.682H860.955C863.547 624.682 865.686 624.272 867.371 623.452C869.055 622.617 870.308 621.35 871.128 619.65C871.963 617.937 872.38 615.783 872.38 613.19C872.38 610.612 871.956 608.481 871.106 606.796C870.271 605.097 869.004 603.83 867.305 602.995C865.62 602.16 863.503 601.743 860.955 601.743H855.835V624.682Z" fill="white"/>
<path d="M604.031 758H571.931V716.24H588.191C591.671 716.24 594.511 716.86 596.711 718.1C598.871 719.3 600.551 720.94 601.751 723.02C602.951 725.1 603.551 727.4 603.551 729.92C603.551 733.04 602.591 735.84 600.671 738.32C598.751 740.76 596.331 742.38 593.411 743.18L604.031 758ZM575.711 718.46L592.031 741.26C594.711 740.7 596.931 739.36 598.691 737.24C600.451 735.12 601.331 732.68 601.331 729.92C601.331 727.72 600.791 725.72 599.711 723.92C598.631 722.12 597.111 720.74 595.151 719.78C593.391 718.9 591.091 718.46 588.251 718.46H575.711ZM574.151 719.9V741.44H589.571L574.151 719.9ZM574.151 755.78H599.831L591.071 743.6L589.211 743.66H574.151V755.78ZM616.165 716.24H646.585V726.8H627.085V732.08H643.285V742.1H627.085V747.44H646.585V758H616.165V716.24ZM675.879 759.08C670.079 759.08 665.599 757.72 662.439 755C659.319 752.24 657.779 748.12 657.819 742.64H667.599C667.559 744.92 668.239 746.66 669.639 747.86C671.039 749.06 672.999 749.66 675.519 749.66C677.599 749.66 679.239 749.32 680.439 748.64C681.639 747.96 682.239 746.92 682.239 745.52C682.239 744.36 681.619 743.52 680.379 743C679.179 742.48 677.979 742.12 676.779 741.92C675.579 741.68 674.839 741.54 674.559 741.5C671.479 740.9 668.819 740.18 666.579 739.34C664.339 738.46 662.459 737.14 660.939 735.38C659.419 733.62 658.659 731.3 658.659 728.42C658.659 725.54 659.419 723.1 660.939 721.1C662.459 719.06 664.479 717.54 666.999 716.54C669.559 715.54 672.339 715.04 675.339 715.04C678.979 715.04 682.119 715.72 684.759 717.08C687.439 718.44 689.539 720.5 691.059 723.26C691.819 724.58 692.279 725.86 692.439 727.1C692.599 728.3 692.679 729.48 692.679 730.64H682.899C682.899 728.48 682.319 726.9 681.159 725.9C679.999 724.86 678.199 724.34 675.759 724.34C673.799 724.34 672.279 724.68 671.199 725.36C670.119 726.04 669.579 726.96 669.579 728.12C669.579 729.4 670.299 730.34 671.739 730.94C673.179 731.54 674.999 732.08 677.199 732.56C680.799 733.28 683.599 733.98 685.599 734.66C687.639 735.3 689.399 736.46 690.879 738.14C692.359 739.82 693.099 742.18 693.099 745.22C693.099 748.1 692.299 750.58 690.699 752.66C689.099 754.74 686.979 756.34 684.339 757.46C681.739 758.54 678.919 759.08 675.879 759.08ZM718.913 758V726.8H703.133V716.24H736.853V726.8H721.073V758H718.913ZM784.087 758H744.727L764.407 715.34L784.087 758ZM748.207 755.78H780.607L764.407 720.62L748.207 755.78ZM826.101 758H794.001V716.24H810.261C813.741 716.24 816.581 716.86 818.781 718.1C820.941 719.3 822.621 720.94 823.821 723.02C825.021 725.1 825.621 727.4 825.621 729.92C825.621 733.04 824.661 735.84 822.741 738.32C820.821 740.76 818.401 742.38 815.481 743.18L826.101 758ZM797.781 718.46L814.101 741.26C816.781 740.7 819.001 739.36 820.761 737.24C822.521 735.12 823.401 732.68 823.401 729.92C823.401 727.72 822.861 725.72 821.781 723.92C820.701 722.12 819.181 720.74 817.221 719.78C815.461 718.9 813.161 718.46 810.321 718.46H797.781ZM796.221 719.9V741.44H811.641L796.221 719.9ZM796.221 755.78H821.901L813.141 743.6L811.281 743.66H796.221V755.78ZM852.155 758V726.8H836.375V716.24H870.095V726.8H854.315V758H852.155ZM653.252 775.1C656.412 775.1 659.312 775.88 661.952 777.44C664.632 779 666.752 781.12 668.312 783.8C669.872 786.44 670.652 789.34 670.652 792.5V801.68C670.652 804.08 670.152 806.44 669.152 808.76L674.972 814.46L667.592 822.14L662.012 816.68C659.252 818.28 656.332 819.08 653.252 819.08C650.092 819.08 647.172 818.3 644.492 816.74C641.852 815.18 639.752 813.08 638.192 810.44C636.632 807.76 635.852 804.84 635.852 801.68V792.5C635.852 789.34 636.632 786.44 638.192 783.8C639.752 781.12 641.852 779 644.492 777.44C647.172 775.88 650.092 775.1 653.252 775.1ZM646.772 801.68C646.772 803.44 647.392 804.96 648.632 806.24C649.912 807.52 651.432 808.16 653.192 808.16C654.952 808.16 656.452 807.52 657.692 806.24C658.972 804.96 659.612 803.44 659.612 801.68V792.5C659.612 790.74 658.972 789.24 657.692 788C656.452 786.76 654.952 786.14 653.192 786.14C651.432 786.14 649.912 786.76 648.632 788C647.392 789.24 646.772 790.74 646.772 792.5V801.68ZM697.786 818.9C694.746 818.9 691.926 818.14 689.326 816.62C686.766 815.1 684.726 813.06 683.206 810.5C681.686 807.9 680.926 805.08 680.926 802.04V776.24H714.646V802.04C714.646 805.08 713.886 807.9 712.366 810.5C710.846 813.06 708.786 815.1 706.186 816.62C703.626 818.14 700.826 818.9 697.786 818.9ZM728.7 786.8V776.24H755.7V786.8H743.28V807.44H755.7V818H728.7V807.44H741.12V786.8H728.7ZM785.534 818V786.8H769.754V776.24H803.474V786.8H787.694V818H785.534Z" fill="white"/>
</svg>
