<svg width="1440" height="1024" viewBox="0 0 1440 1024" fill="none" xmlns="http://www.w3.org/2000/svg">
<g clip-path="url(#clip0_6_50)">
<path d="M1158.82 51.7083C1148.95 51.7083 1140.8 60.8777 1137.5 65.2053C1134.2 60.8777 1126.05 51.7083 1116.18 51.7083C1103.4 51.7083 1093 63.458 1093 77.8984C1093 85.7768 1096.13 93.1192 1101.6 98.144C1101.68 98.2817 1101.78 98.4084 1101.89 98.5224L1136.19 132.75C1136.55 133.111 1137.03 133.292 1137.5 133.292C1137.97 133.292 1138.45 133.111 1138.81 132.749L1174.25 97.322L1174.62 96.967C1174.91 96.6936 1175.19 96.4165 1175.51 96.0617C1175.65 95.9296 1175.76 95.781 1175.84 95.6199C1179.82 90.7527 1182 84.4749 1182 77.8984C1182 63.458 1171.6 51.7083 1158.82 51.7083ZM1172.76 93.5339C1172.71 93.5937 1172.66 93.657 1172.62 93.7222C1172.44 93.9214 1172.25 94.097 1172.06 94.2763L1137.5 128.817L1104.94 96.3206C1104.83 96.1141 1104.68 95.9258 1104.51 95.7683C1099.55 91.4407 1096.71 84.9275 1096.71 77.8984C1096.71 65.5022 1105.44 55.4167 1116.18 55.4167C1126.79 55.4167 1135.85 69.2614 1135.94 69.4008C1136.63 70.4582 1138.37 70.4582 1139.06 69.4008C1139.15 69.2614 1148.21 55.4167 1158.82 55.4167C1169.56 55.4167 1178.29 65.5024 1178.29 77.8984C1178.29 83.7398 1176.33 89.2932 1172.76 93.5339Z" fill="#FF0000"/>
<rect x="1095.92" y="78.6393" width="82.4344" height="10.9426" rx="1" fill="#FF0000"/>
<path d="M1137.05 129.578L1096.33 87.4035L1179.25 88.8869L1137.05 129.578Z" fill="#FF0000"/>
</g>
<g clip-path="url(#clip1_6_50)">
<path d="M1261.56 51.7083C1251.58 51.7083 1243.33 60.8777 1240 65.2053C1236.67 60.8777 1228.42 51.7083 1218.44 51.7083C1205.51 51.7083 1195 63.458 1195 77.8984C1195 85.7768 1198.16 93.1192 1203.7 98.144C1203.78 98.2817 1203.88 98.4084 1203.99 98.5224L1238.68 132.75C1239.04 133.111 1239.52 133.292 1240 133.292C1240.48 133.292 1240.96 133.111 1241.33 132.749L1277.16 97.322L1277.53 96.967C1277.83 96.6936 1278.12 96.4165 1278.44 96.0617C1278.57 95.9296 1278.69 95.781 1278.77 95.6199C1282.79 90.7527 1285 84.4749 1285 77.8984C1285 63.458 1274.49 51.7083 1261.56 51.7083ZM1275.65 93.5339C1275.6 93.5937 1275.55 93.657 1275.51 93.7222C1275.34 93.9214 1275.14 94.097 1274.95 94.2763L1240 128.817L1207.07 96.3206C1206.96 96.1141 1206.82 95.9258 1206.63 95.7683C1201.62 91.4407 1198.75 84.9275 1198.75 77.8984C1198.75 65.5022 1207.58 55.4167 1218.44 55.4167C1229.17 55.4167 1238.33 69.2614 1238.42 69.4008C1239.12 70.4582 1240.88 70.4582 1241.58 69.4008C1241.67 69.2614 1250.83 55.4167 1261.56 55.4167C1272.42 55.4167 1281.25 65.5024 1281.25 77.8984C1281.25 83.7398 1279.26 89.2932 1275.65 93.5339Z" fill="#FF0000"/>
<rect x="1197.95" y="88.8525" width="83.3607" height="2.18852" rx="1" fill="#FF0000"/>
<path d="M1239.56 129.678L1199.12 89.6601L1281.41 91.1158L1239.56 129.678Z" fill="#FF0000"/>
</g>
<path d="M1363.82 51.7083C1353.95 51.7083 1345.8 60.8777 1342.5 65.2053C1339.2 60.8777 1331.05 51.7083 1321.18 51.7083C1308.4 51.7083 1298 63.458 1298 77.8984C1298 85.7768 1301.13 93.1192 1306.6 98.144C1306.68 98.2817 1306.78 98.4084 1306.89 98.5224L1341.19 132.75C1341.55 133.111 1342.03 133.292 1342.5 133.292C1342.97 133.292 1343.45 133.111 1343.81 132.749L1379.25 97.322L1379.62 96.967C1379.91 96.6936 1380.19 96.4165 1380.51 96.0617C1380.65 95.9296 1380.76 95.781 1380.84 95.6199C1384.82 90.7527 1387 84.4749 1387 77.8984C1387 63.458 1376.6 51.7083 1363.82 51.7083ZM1377.76 93.5339C1377.71 93.5937 1377.66 93.657 1377.62 93.7222C1377.44 93.9214 1377.25 94.097 1377.06 94.2763L1342.5 128.817L1309.94 96.3206C1309.83 96.1141 1309.68 95.9258 1309.51 95.7683C1304.55 91.4407 1301.71 84.9275 1301.71 77.8984C1301.71 65.5022 1310.44 55.4167 1321.18 55.4167C1331.79 55.4167 1340.85 69.2614 1340.94 69.4008C1341.63 70.4582 1343.37 70.4582 1344.06 69.4008C1344.15 69.2614 1353.21 55.4167 1363.82 55.4167C1374.56 55.4167 1383.29 65.5024 1383.29 77.8984C1383.29 83.7398 1381.33 89.2932 1377.76 93.5339Z" fill="#FF0000"/>
<path d="M1058.82 51.7083C1048.95 51.7083 1040.8 60.8777 1037.5 65.2053C1034.2 60.8777 1026.05 51.7083 1016.18 51.7083C1003.4 51.7083 993 63.458 993 77.8984C993 85.7768 996.127 93.1193 1001.6 98.144C1001.68 98.2817 1001.78 98.4084 1001.89 98.5224L1036.19 132.75C1036.55 133.111 1037.03 133.292 1037.5 133.292C1037.97 133.292 1038.45 133.111 1038.81 132.749L1074.25 97.322L1074.62 96.967C1074.91 96.6936 1075.19 96.4165 1075.51 96.0617C1075.65 95.9296 1075.76 95.781 1075.84 95.6199C1079.82 90.7527 1082 84.4749 1082 77.8984C1082 63.458 1071.6 51.7083 1058.82 51.7083Z" fill="#FF0000"/>
<path d="M154.907 88.7467L151.022 69.851C150.727 68.3996 149.133 67.3461 147.234 67.3461H140.837C138.725 67.3461 137.007 68.6785 137.007 70.316V87.0633C137.007 87.766 136.273 88.3379 135.371 88.3379H103.882C102.981 88.3379 102.247 87.766 102.247 87.0633V70.316C102.247 68.6785 100.529 67.3461 98.4163 67.3461H97.8199C97.0711 67.3461 96.4647 67.8164 96.4647 68.3967C96.4647 68.977 97.0714 69.4473 97.8199 69.4473H98.4163C99.0338 69.4473 99.5365 69.8367 99.5365 70.316V87.0633C99.5365 88.9248 101.486 90.4393 103.883 90.4393H135.371C137.768 90.4393 139.717 88.9248 139.717 87.0633V70.316C139.717 69.8369 140.22 69.4473 140.838 69.4473H147.235C147.792 69.4473 148.258 69.7547 148.345 70.1803L152.229 89.0732C152.285 89.3492 152.313 89.6156 152.313 89.865V126.175C152.313 128.206 150.181 129.859 147.561 129.859H96.6995C95.9507 129.859 95.3442 130.329 95.3442 130.909C95.3442 131.49 95.9509 131.96 96.6995 131.96H147.56C151.676 131.96 155.023 129.364 155.023 126.175V89.865C155.023 89.5082 154.984 89.1334 154.907 88.7467Z" fill="#1053F0"/>
<path d="M140.268 110.517C140.268 104.673 131.139 99.9191 119.919 99.9191C108.7 99.9191 99.5713 104.673 99.5713 110.517C99.5713 116.36 108.699 121.114 119.919 121.114C131.139 121.114 140.268 116.36 140.268 110.517ZM102.282 110.517C102.282 105.832 110.194 102.02 119.919 102.02C129.644 102.02 137.557 105.832 137.557 110.517C137.557 115.202 129.645 119.013 119.919 119.013C110.194 119.013 102.282 115.202 102.282 110.517Z" fill="#1053F0"/>
<path d="M91.3004 61.0816L81.1041 55.2119V52.7139C82.7005 52.3488 83.8766 51.215 83.8766 49.8609V44.11C83.8766 42.4625 82.1477 41.1223 80.0229 41.1223H63.708C61.5833 41.1223 59.8544 42.4625 59.8544 44.11V49.8607C59.8544 51.3576 61.287 52.5893 63.1421 52.8037V54.3256L52.2449 61.0992C50.8039 61.9984 49.9775 63.3332 49.9775 64.7613V68.9711C49.9775 70.7594 51.2774 72.316 53.1834 73.1078C51.5822 74.217 50.5671 75.8242 50.5671 77.6158C50.5671 79.6924 51.9241 81.527 53.9856 82.6176C51.9241 83.7082 50.5671 85.543 50.5671 87.6193C50.5671 89.4588 51.6346 91.1061 53.3106 92.217C51.6692 92.9926 50.5671 94.3895 50.5671 95.9857V128.462C50.5671 130.897 53.1219 132.877 56.2628 132.877H87.4682C90.609 132.877 93.1643 130.897 93.1643 128.462V95.9861C93.1643 94.3898 92.0623 92.9932 90.4206 92.2174C92.0965 91.1064 93.1643 89.459 93.1643 87.6195C93.1643 85.543 91.8073 83.7084 89.7458 82.6178C91.8073 81.5271 93.1643 79.6924 93.1643 77.616C93.1643 75.8246 92.1492 74.2172 90.548 73.108C92.4541 72.3162 93.7541 70.7594 93.7541 68.9711V64.8523C93.7536 63.3686 92.8348 61.9582 91.3004 61.0816ZM62.5646 49.8607V44.11C62.5646 43.6213 63.0773 43.2234 63.7077 43.2234H80.0227C80.6531 43.2234 81.1658 43.6211 81.1658 44.11V49.8607C81.1658 50.3494 80.6531 50.7469 80.0227 50.7469C73.2363 50.7469 66.3462 50.7469 63.7077 50.7469C63.0773 50.7469 62.5646 50.3496 62.5646 49.8607ZM87.4677 93.6721C89.1137 93.6721 90.4531 94.71 90.4531 95.9861V128.463C90.4531 129.738 89.1137 130.777 87.4677 130.777H56.2623C54.6162 130.777 53.2771 129.739 53.2771 128.463V95.9861C53.2771 94.7102 54.616 93.6721 56.2623 93.6721H87.4677ZM90.4533 87.6197C90.4533 89.7982 88.1666 91.5709 85.3563 91.5709H58.3741C55.5638 91.5709 53.2771 89.7982 53.2771 87.6197C53.2771 85.4412 55.5638 83.6686 58.3741 83.6686H85.356C88.1666 83.6686 90.4533 85.4412 90.4533 87.6197ZM85.3563 81.5672H58.3741C55.5638 81.5672 53.2771 79.7945 53.2771 77.616C53.2771 75.4375 55.5638 73.6648 58.3741 73.6648H85.356C88.1663 73.6648 90.4531 75.4375 90.4531 77.616C90.4533 79.7947 88.1666 81.5672 85.3563 81.5672ZM91.0431 68.9713C91.0431 70.4002 89.5395 71.5627 87.6909 71.5627H56.04C54.1915 71.5627 52.6878 70.4002 52.6878 68.9713V64.7615C52.6878 63.9842 53.1572 63.227 53.942 62.7375L65.3449 55.6494C65.6657 55.45 65.8523 55.1484 65.8523 54.8297V52.8482H78.3936V55.7402C78.3936 56.0727 78.5964 56.3855 78.9406 56.5836L89.6884 62.7707C90.5367 63.2553 91.0434 64.0338 91.0434 64.8525V68.9713H91.0431Z" fill="#1053F0"/>
<defs>
<clipPath id="clip0_6_50">
<rect width="89" height="89" fill="white" transform="translate(1093 48)"/>
</clipPath>
<clipPath id="clip1_6_50">
<rect width="90" height="89" fill="white" transform="translate(1195 48)"/>
</clipPath>
</defs>
</svg>
