<svg width="1440" height="1024" viewBox="0 0 1440 1024" fill="none" xmlns="http://www.w3.org/2000/svg">
<path d="M457.736 77.4C473.136 77.4 485.386 79.7333 494.486 84.4C505.453 90 513.853 97.7 519.686 107.5C525.753 117.3 528.786 128.267 528.786 140.4C528.786 151.833 525.753 162.45 519.686 172.25C513.619 181.817 505.336 189.4 494.836 195C507.436 199.433 518.053 207.133 526.686 218.1C535.319 229.067 539.636 241.433 539.636 255.2C539.636 267.333 536.486 278.533 530.186 288.8C524.119 298.833 515.953 306.767 505.686 312.6C500.553 315.4 494.836 317.5 488.536 318.9C482.236 320.3 473.836 321 463.336 321H355.536V77.4H457.736ZM524.668 172.25C524.668 154.05 529.218 137.133 538.318 121.5C547.418 105.867 559.668 93.5 575.068 84.4C590.701 75.3 607.735 70.75 626.168 70.75C644.601 70.75 661.518 75.3 676.918 84.4C692.551 93.5 704.918 105.867 714.018 121.5C723.118 137.133 727.668 154.05 727.668 172.25V226.15C727.668 244.35 723.118 261.267 714.018 276.9C704.918 292.533 692.551 304.9 676.918 314C661.518 323.1 644.601 327.65 626.168 327.65C607.735 327.65 590.701 323.1 575.068 314C559.668 304.9 547.418 292.533 538.318 276.9C529.218 261.267 524.668 244.35 524.668 226.15V172.25ZM588.368 226.15C588.368 237.35 591.868 246.917 598.868 254.85C605.868 262.783 614.968 266.75 626.168 266.75C637.135 266.75 646.118 262.783 653.118 254.85C660.118 246.917 663.618 237.35 663.618 226.15V171.9C663.618 160.467 660.118 150.9 653.118 143.2C646.118 135.5 637.135 131.65 626.168 131.65C614.968 131.65 605.868 135.5 598.868 143.2C591.868 150.9 588.368 160.467 588.368 171.9V226.15ZM805.45 321V139H713.4V77.4H910.1V139H818.05V321H805.45ZM1103.73 259.05V321H918.232V77.4H931.182V259.05H1103.73ZM345.736 593.65V350.05H359.386L529.486 515.6V350.05H542.436V593.65H345.736ZM547.418 412V350.4H704.918V412H632.468V532.4H704.918V594H547.418V532.4H619.868V412H547.418ZM912.2 501.95C912.433 532.517 903.683 556.433 885.95 573.7C868.217 590.733 843.833 599.25 812.8 599.25C794.367 599.25 777.333 595.05 761.7 586.65C746.3 578.25 734.05 566.35 724.95 550.95C715.85 535.55 711.3 517.817 711.3 497.75V446.65C711.3 426.817 715.617 409.2 724.25 393.8C733.117 378.4 745.133 366.5 760.3 358.1C775.7 349.467 792.85 345.15 811.75 345.15C842.783 345.15 867.05 353.667 884.55 370.7C902.283 387.5 911.267 411.3 911.5 442.1H848.5C848.267 430.2 845 420.983 838.7 414.45C832.633 407.917 823.65 404.65 811.75 404.65C801.017 404.65 792.15 408.033 785.15 414.8C778.15 421.567 774.65 431.133 774.65 443.5V500.55C774.65 512.917 778.267 522.6 785.5 529.6C792.967 536.367 802.067 539.75 812.8 539.75C837.3 539.75 849.55 527.15 849.55 501.95H912.2ZM1000.83 451.9L1102.33 594H906.332V350.4H1102.33L1000.83 451.9ZM991.732 461L919.282 533.45V581.05H1077.48L991.732 461Z" fill="white"/>
<path d="M631.465 758.08C625.665 758.08 621.185 756.72 618.025 754C614.905 751.24 613.365 747.12 613.405 741.64H623.185C623.145 743.92 623.825 745.66 625.225 746.86C626.625 748.06 628.585 748.66 631.105 748.66C633.185 748.66 634.825 748.32 636.025 747.64C637.225 746.96 637.825 745.92 637.825 744.52C637.825 743.36 637.205 742.52 635.965 742C634.765 741.48 633.565 741.12 632.365 740.92C631.165 740.68 630.425 740.54 630.145 740.5C627.065 739.9 624.405 739.18 622.165 738.34C619.925 737.46 618.045 736.14 616.525 734.38C615.005 732.62 614.245 730.3 614.245 727.42C614.245 724.54 615.005 722.1 616.525 720.1C618.045 718.06 620.065 716.54 622.585 715.54C625.145 714.54 627.925 714.04 630.925 714.04C634.565 714.04 637.705 714.72 640.345 716.08C643.025 717.44 645.125 719.5 646.645 722.26C647.405 723.58 647.865 724.86 648.025 726.1C648.185 727.3 648.265 728.48 648.265 729.64H638.485C638.485 727.48 637.905 725.9 636.745 724.9C635.585 723.86 633.785 723.34 631.345 723.34C629.385 723.34 627.865 723.68 626.785 724.36C625.705 725.04 625.165 725.96 625.165 727.12C625.165 728.4 625.885 729.34 627.325 729.94C628.765 730.54 630.585 731.08 632.785 731.56C636.385 732.28 639.185 732.98 641.185 733.66C643.225 734.3 644.985 735.46 646.465 737.14C647.945 738.82 648.685 741.18 648.685 744.22C648.685 747.1 647.885 749.58 646.285 751.66C644.685 753.74 642.565 755.34 639.925 756.46C637.325 757.54 634.505 758.08 631.465 758.08ZM674.499 757V725.8H658.719V715.24H692.439V725.8H676.659V757H674.499ZM739.673 757H700.313L719.993 714.34L739.673 757ZM703.793 754.78H736.193L719.993 719.62L703.793 754.78ZM781.687 757H749.587V715.24H765.847C769.327 715.24 772.167 715.86 774.367 717.1C776.527 718.3 778.207 719.94 779.407 722.02C780.607 724.1 781.207 726.4 781.207 728.92C781.207 732.04 780.247 734.84 778.327 737.32C776.407 739.76 773.987 741.38 771.067 742.18L781.687 757ZM753.367 717.46L769.687 740.26C772.367 739.7 774.587 738.36 776.347 736.24C778.107 734.12 778.987 731.68 778.987 728.92C778.987 726.72 778.447 724.72 777.367 722.92C776.287 721.12 774.767 719.74 772.807 718.78C771.047 717.9 768.747 717.46 765.907 717.46H753.367ZM751.807 718.9V740.44H767.227L751.807 718.9ZM751.807 754.78H777.487L768.727 742.6L766.867 742.66H751.807V754.78ZM807.741 757V725.8H791.961V715.24H825.681V725.8H809.901V757H807.741ZM564.844 818.08C559.044 818.08 554.564 816.72 551.404 814C548.284 811.24 546.744 807.12 546.784 801.64H556.564C556.524 803.92 557.204 805.66 558.604 806.86C560.004 808.06 561.964 808.66 564.484 808.66C566.564 808.66 568.204 808.32 569.404 807.64C570.604 806.96 571.204 805.92 571.204 804.52C571.204 803.36 570.584 802.52 569.344 802C568.144 801.48 566.944 801.12 565.744 800.92C564.544 800.68 563.804 800.54 563.524 800.5C560.444 799.9 557.784 799.18 555.544 798.34C553.304 797.46 551.424 796.14 549.904 794.38C548.384 792.62 547.624 790.3 547.624 787.42C547.624 784.54 548.384 782.1 549.904 780.1C551.424 778.06 553.444 776.54 555.964 775.54C558.524 774.54 561.304 774.04 564.304 774.04C567.944 774.04 571.084 774.72 573.724 776.08C576.404 777.44 578.504 779.5 580.024 782.26C580.784 783.58 581.244 784.86 581.404 786.1C581.564 787.3 581.644 788.48 581.644 789.64H571.864C571.864 787.48 571.284 785.9 570.124 784.9C568.964 783.86 567.164 783.34 564.724 783.34C562.764 783.34 561.244 783.68 560.164 784.36C559.084 785.04 558.544 785.96 558.544 787.12C558.544 788.4 559.264 789.34 560.704 789.94C562.144 790.54 563.964 791.08 566.164 791.56C569.764 792.28 572.564 792.98 574.564 793.66C576.604 794.3 578.364 795.46 579.844 797.14C581.324 798.82 582.064 801.18 582.064 804.22C582.064 807.1 581.264 809.58 579.664 811.66C578.064 813.74 575.944 815.34 573.304 816.46C570.704 817.54 567.884 818.08 564.844 818.08ZM593.958 775.24H624.378V785.8H604.878V791.08H621.078V801.1H604.878V806.44H624.378V817H593.958V775.24ZM638.372 775.24H668.792V785.8H649.292V791.08H665.492V801.1H649.292V806.44H668.792V817H638.372V775.24ZM696.706 817V785.8H680.926V775.24H714.646V785.8H698.866V817H696.706ZM728.7 785.8V775.24H755.7V785.8H743.28V806.44H755.7V817H728.7V806.44H741.12V785.8H728.7ZM770.354 816.94V775.18H772.694L801.854 803.56V775.18H804.074V816.94H770.354ZM830.728 776.56C828.048 776.56 825.548 777.24 823.228 778.6C820.948 779.92 819.128 781.74 817.768 784.06C816.408 786.34 815.728 788.84 815.728 791.56V799.48C815.728 802.32 816.128 804.66 816.928 806.5C818.048 809.1 819.748 811.22 822.028 812.86C824.308 814.5 826.868 815.42 829.708 815.62V796.12H848.008V800.08C848.008 802.64 847.628 804.92 846.868 806.92C845.628 810.24 843.548 812.9 840.628 814.9C837.708 816.9 834.408 817.9 830.728 817.9C827.248 817.9 824.068 816.96 821.188 815.08C818.348 813.16 816.268 810.62 814.948 807.46C813.988 805.22 813.508 802.56 813.508 799.48V791.56C813.508 788.44 814.268 785.56 815.788 782.92C817.348 780.28 819.448 778.2 822.088 776.68C824.728 775.12 827.608 774.34 830.728 774.34C833.328 774.34 835.708 774.78 837.868 775.66C840.028 776.5 841.868 777.74 843.388 779.38C844.628 780.74 845.628 782.26 846.388 783.94C847.188 785.62 847.588 787.32 847.588 789.04H845.428C845.388 787.56 845.008 786.1 844.288 784.66C843.608 783.22 842.728 781.92 841.648 780.76C838.968 777.96 835.328 776.56 830.728 776.56ZM845.788 798.28H831.868V815.62C834.748 815.42 837.328 814.52 839.608 812.92C841.928 811.28 843.628 809.12 844.708 806.44C845.428 804.56 845.788 802.44 845.788 800.08V798.28ZM875.742 818.08C869.942 818.08 865.462 816.72 862.302 814C859.182 811.24 857.642 807.12 857.682 801.64H867.462C867.422 803.92 868.102 805.66 869.502 806.86C870.902 808.06 872.862 808.66 875.382 808.66C877.462 808.66 879.102 808.32 880.302 807.64C881.502 806.96 882.102 805.92 882.102 804.52C882.102 803.36 881.482 802.52 880.242 802C879.042 801.48 877.842 801.12 876.642 800.92C875.442 800.68 874.702 800.54 874.422 800.5C871.342 799.9 868.682 799.18 866.442 798.34C864.202 797.46 862.322 796.14 860.802 794.38C859.282 792.62 858.522 790.3 858.522 787.42C858.522 784.54 859.282 782.1 860.802 780.1C862.322 778.06 864.342 776.54 866.862 775.54C869.422 774.54 872.202 774.04 875.202 774.04C878.842 774.04 881.982 774.72 884.622 776.08C887.302 777.44 889.402 779.5 890.922 782.26C891.682 783.58 892.142 784.86 892.302 786.1C892.462 787.3 892.542 788.48 892.542 789.64H882.762C882.762 787.48 882.182 785.9 881.022 784.9C879.862 783.86 878.062 783.34 875.622 783.34C873.662 783.34 872.142 783.68 871.062 784.36C869.982 785.04 869.442 785.96 869.442 787.12C869.442 788.4 870.162 789.34 871.602 789.94C873.042 790.54 874.862 791.08 877.062 791.56C880.662 792.28 883.462 792.98 885.462 793.66C887.502 794.3 889.262 795.46 890.742 797.14C892.222 798.82 892.962 801.18 892.962 804.22C892.962 807.1 892.162 809.58 890.562 811.66C888.962 813.74 886.842 815.34 884.202 816.46C881.602 817.54 878.782 818.08 875.742 818.08ZM603.971 861.22C604.011 866.46 602.511 870.56 599.471 873.52C596.431 876.44 592.251 877.9 586.931 877.9C583.771 877.9 580.851 877.18 578.171 875.74C575.531 874.3 573.431 872.26 571.871 869.62C570.311 866.98 569.531 863.94 569.531 860.5V851.74C569.531 848.34 570.271 845.32 571.751 842.68C573.271 840.04 575.331 838 577.931 836.56C580.571 835.08 583.511 834.34 586.751 834.34C592.071 834.34 596.231 835.8 599.231 838.72C602.271 841.6 603.811 845.68 603.851 850.96H593.051C593.011 848.92 592.451 847.34 591.371 846.22C590.331 845.1 588.791 844.54 586.751 844.54C584.911 844.54 583.391 845.12 582.191 846.28C580.991 847.44 580.391 849.08 580.391 851.2V860.98C580.391 863.1 581.011 864.76 582.251 865.96C583.531 867.12 585.091 867.7 586.931 867.7C591.131 867.7 593.231 865.54 593.231 861.22H603.971ZM648.445 877H616.345V835.24H632.605C636.085 835.24 638.925 835.86 641.125 837.1C643.285 838.3 644.965 839.94 646.165 842.02C647.365 844.1 647.965 846.4 647.965 848.92C647.965 852.04 647.005 854.84 645.085 857.32C643.165 859.76 640.745 861.38 637.825 862.18L648.445 877ZM620.125 837.46L636.445 860.26C639.125 859.7 641.345 858.36 643.105 856.24C644.865 854.12 645.745 851.68 645.745 848.92C645.745 846.72 645.205 844.72 644.125 842.92C643.045 841.12 641.525 839.74 639.565 838.78C637.805 837.9 635.505 837.46 632.665 837.46H620.125ZM618.565 838.9V860.44H633.985L618.565 838.9ZM618.565 874.78H644.245L635.485 862.6L633.625 862.66H618.565V874.78ZM660.579 835.24H690.999V845.8H671.499V851.08H687.699V861.1H671.499V866.44H690.999V877H660.579V835.24ZM704.993 877V835.24H720.533C723.573 835.24 726.373 836 728.933 837.52C731.533 839.04 733.593 841.1 735.113 843.7C736.633 846.26 737.393 849.06 737.393 852.1V860.14C737.393 863.18 736.633 866 735.113 868.6C733.593 871.16 731.533 873.2 728.933 874.72C726.373 876.24 723.573 877 720.533 877H704.993ZM750.907 845.8V835.24H777.907V845.8H765.487V866.44H777.907V877H750.907V866.44H763.327V845.8H750.907ZM807.741 877V845.8H791.961V835.24H825.681V845.8H809.901V877H807.741ZM853.535 878.08C847.735 878.08 843.255 876.72 840.095 874C836.975 871.24 835.435 867.12 835.475 861.64H845.255C845.215 863.92 845.895 865.66 847.295 866.86C848.695 868.06 850.655 868.66 853.175 868.66C855.255 868.66 856.895 868.32 858.095 867.64C859.295 866.96 859.895 865.92 859.895 864.52C859.895 863.36 859.275 862.52 858.035 862C856.835 861.48 855.635 861.12 854.435 860.92C853.235 860.68 852.495 860.54 852.215 860.5C849.135 859.9 846.475 859.18 844.235 858.34C841.995 857.46 840.115 856.14 838.595 854.38C837.075 852.62 836.315 850.3 836.315 847.42C836.315 844.54 837.075 842.1 838.595 840.1C840.115 838.06 842.135 836.54 844.655 835.54C847.215 834.54 849.995 834.04 852.995 834.04C856.635 834.04 859.775 834.72 862.415 836.08C865.095 837.44 867.195 839.5 868.715 842.26C869.475 843.58 869.935 844.86 870.095 846.1C870.255 847.3 870.335 848.48 870.335 849.64H860.555C860.555 847.48 859.975 845.9 858.815 844.9C857.655 843.86 855.855 843.34 853.415 843.34C851.455 843.34 849.935 843.68 848.855 844.36C847.775 845.04 847.235 845.96 847.235 847.12C847.235 848.4 847.955 849.34 849.395 849.94C850.835 850.54 852.655 851.08 854.855 851.56C858.455 852.28 861.255 852.98 863.255 853.66C865.295 854.3 867.055 855.46 868.535 857.14C870.015 858.82 870.755 861.18 870.755 864.22C870.755 867.1 869.955 869.58 868.355 871.66C866.755 873.74 864.635 875.34 861.995 876.46C859.395 877.54 856.575 878.08 853.535 878.08ZM653.252 894.1C656.412 894.1 659.312 894.88 661.952 896.44C664.632 898 666.752 900.12 668.312 902.8C669.872 905.44 670.652 908.34 670.652 911.5V920.68C670.652 923.08 670.152 925.44 669.152 927.76L674.972 933.46L667.592 941.14L662.012 935.68C659.252 937.28 656.332 938.08 653.252 938.08C650.092 938.08 647.172 937.3 644.492 935.74C641.852 934.18 639.752 932.08 638.192 929.44C636.632 926.76 635.852 923.84 635.852 920.68V911.5C635.852 908.34 636.632 905.44 638.192 902.8C639.752 900.12 641.852 898 644.492 896.44C647.172 894.88 650.092 894.1 653.252 894.1ZM646.772 920.68C646.772 922.44 647.392 923.96 648.632 925.24C649.912 926.52 651.432 927.16 653.192 927.16C654.952 927.16 656.452 926.52 657.692 925.24C658.972 923.96 659.612 922.44 659.612 920.68V911.5C659.612 909.74 658.972 908.24 657.692 907C656.452 905.76 654.952 905.14 653.192 905.14C651.432 905.14 649.912 905.76 648.632 907C647.392 908.24 646.772 909.74 646.772 911.5V920.68ZM697.786 937.9C694.746 937.9 691.926 937.14 689.326 935.62C686.766 934.1 684.726 932.06 683.206 929.5C681.686 926.9 680.926 924.08 680.926 921.04V895.24H714.646V921.04C714.646 924.08 713.886 926.9 712.366 929.5C710.846 932.06 708.786 934.1 706.186 935.62C703.626 937.14 700.826 937.9 697.786 937.9ZM728.7 905.8V895.24H755.7V905.8H743.28V926.44H755.7V937H728.7V926.44H741.12V905.8H728.7ZM785.534 937V905.8H769.754V895.24H803.474V905.8H787.694V937H785.534Z" fill="white"/>
</svg>
