<svg width="1440" height="1024" viewBox="0 0 1440 1024" fill="none" xmlns="http://www.w3.org/2000/svg">
<path d="M173.164 536V494.24H190.624C193.544 494.24 196.064 494.78 198.184 495.86C200.624 497.1 202.564 498.88 204.004 501.2C205.444 503.48 206.164 506 206.164 508.76C206.164 511.52 205.444 514.06 204.004 516.38C202.604 518.7 200.684 520.48 198.244 521.72C196.164 522.8 193.624 523.34 190.624 523.34H184.084V536H173.164ZM248.718 536H216.618V494.24H232.878C236.358 494.24 239.198 494.86 241.398 496.1C243.558 497.3 245.238 498.94 246.438 501.02C247.638 503.1 248.238 505.4 248.238 507.92C248.238 511.04 247.278 513.84 245.358 516.32C243.438 518.76 241.018 520.38 238.098 521.18L248.718 536ZM220.398 496.46L236.718 519.26C239.398 518.7 241.618 517.36 243.378 515.24C245.138 513.12 246.018 510.68 246.018 507.92C246.018 505.72 245.478 503.72 244.398 501.92C243.318 500.12 241.798 498.74 239.838 497.78C238.078 496.9 235.778 496.46 232.938 496.46H220.398ZM218.838 497.9V519.44H234.258L218.838 497.9ZM218.838 533.78H244.518L235.758 521.6L233.898 521.66H218.838V533.78ZM260.852 494.24H291.272V504.8H271.772V510.08H287.972V520.1H271.772V525.44H291.272V536H260.852V494.24ZM320.566 537.08C314.766 537.08 310.286 535.72 307.126 533C304.006 530.24 302.466 526.12 302.506 520.64H312.286C312.246 522.92 312.926 524.66 314.326 525.86C315.726 527.06 317.686 527.66 320.206 527.66C322.286 527.66 323.926 527.32 325.126 526.64C326.326 525.96 326.926 524.92 326.926 523.52C326.926 522.36 326.306 521.52 325.066 521C323.866 520.48 322.666 520.12 321.466 519.92C320.266 519.68 319.526 519.54 319.246 519.5C316.166 518.9 313.506 518.18 311.266 517.34C309.026 516.46 307.146 515.14 305.626 513.38C304.106 511.62 303.346 509.3 303.346 506.42C303.346 503.54 304.106 501.1 305.626 499.1C307.146 497.06 309.166 495.54 311.686 494.54C314.246 493.54 317.026 493.04 320.026 493.04C323.666 493.04 326.806 493.72 329.446 495.08C332.126 496.44 334.226 498.5 335.746 501.26C336.506 502.58 336.966 503.86 337.126 505.1C337.286 506.3 337.366 507.48 337.366 508.64H327.586C327.586 506.48 327.006 504.9 325.846 503.9C324.686 502.86 322.886 502.34 320.446 502.34C318.486 502.34 316.966 502.68 315.886 503.36C314.806 504.04 314.266 504.96 314.266 506.12C314.266 507.4 314.986 508.34 316.426 508.94C317.866 509.54 319.686 510.08 321.886 510.56C325.486 511.28 328.286 511.98 330.286 512.66C332.326 513.3 334.086 514.46 335.566 516.14C337.046 517.82 337.786 520.18 337.786 523.22C337.786 526.1 336.986 528.58 335.386 530.66C333.786 532.74 331.666 534.34 329.026 535.46C326.426 536.54 323.606 537.08 320.566 537.08ZM364.98 537.08C359.18 537.08 354.7 535.72 351.54 533C348.42 530.24 346.88 526.12 346.92 520.64H356.7C356.66 522.92 357.34 524.66 358.74 525.86C360.14 527.06 362.1 527.66 364.62 527.66C366.7 527.66 368.34 527.32 369.54 526.64C370.74 525.96 371.34 524.92 371.34 523.52C371.34 522.36 370.72 521.52 369.48 521C368.28 520.48 367.08 520.12 365.88 519.92C364.68 519.68 363.94 519.54 363.66 519.5C360.58 518.9 357.92 518.18 355.68 517.34C353.44 516.46 351.56 515.14 350.04 513.38C348.52 511.62 347.76 509.3 347.76 506.42C347.76 503.54 348.52 501.1 350.04 499.1C351.56 497.06 353.58 495.54 356.1 494.54C358.66 493.54 361.44 493.04 364.44 493.04C368.08 493.04 371.22 493.72 373.86 495.08C376.54 496.44 378.64 498.5 380.16 501.26C380.92 502.58 381.38 503.86 381.54 505.1C381.7 506.3 381.78 507.48 381.78 508.64H372C372 506.48 371.42 504.9 370.26 503.9C369.1 502.86 367.3 502.34 364.86 502.34C362.9 502.34 361.38 502.68 360.3 503.36C359.22 504.04 358.68 504.96 358.68 506.12C358.68 507.4 359.4 508.34 360.84 508.94C362.28 509.54 364.1 510.08 366.3 510.56C369.9 511.28 372.7 511.98 374.7 512.66C376.74 513.3 378.5 514.46 379.98 516.14C381.46 517.82 382.2 520.18 382.2 523.22C382.2 526.1 381.4 528.58 379.8 530.66C378.2 532.74 376.08 534.34 373.44 535.46C370.84 536.54 368.02 537.08 364.98 537.08ZM473.189 536H433.829L453.509 493.34L473.189 536ZM437.309 533.78H469.709L453.509 498.62L437.309 533.78ZM481.663 535.94V494.18H484.003L513.163 522.56V494.18H515.383V535.94H481.663ZM524.517 494.24H560.157L543.477 518.9V536H541.257V518.9L524.517 494.24ZM634.105 494.24C636.745 494.24 638.845 494.64 640.405 495.44C642.285 496.4 643.725 497.72 644.725 499.4C645.765 501.08 646.285 502.96 646.285 505.04C646.285 507 645.765 508.82 644.725 510.5C643.685 512.14 642.265 513.44 640.465 514.4C642.625 515.16 644.445 516.48 645.925 518.36C647.405 520.24 648.145 522.36 648.145 524.72C648.145 526.8 647.605 528.72 646.525 530.48C645.485 532.2 644.085 533.56 642.325 534.56C641.445 535.04 640.465 535.4 639.385 535.64C638.305 535.88 636.865 536 635.065 536H616.585V494.24H634.105ZM675.579 536.9C672.539 536.9 669.719 536.14 667.119 534.62C664.559 533.1 662.519 531.06 660.999 528.5C659.479 525.9 658.719 523.08 658.719 520.04V494.24H692.439V520.04C692.439 523.08 691.679 525.9 690.159 528.5C688.639 531.06 686.579 533.1 683.979 534.62C681.419 536.14 678.619 536.9 675.579 536.9ZM718.913 536V504.8H703.133V494.24H736.853V504.8H721.073V536H718.913ZM763.327 536V504.8H747.547V494.24H781.267V504.8H765.487V536H763.327ZM791.421 510.5C791.421 507.38 792.201 504.48 793.761 501.8C795.321 499.12 797.421 497 800.061 495.44C802.741 493.88 805.661 493.1 808.821 493.1C811.981 493.1 814.881 493.88 817.521 495.44C820.201 497 822.321 499.12 823.881 501.8C825.441 504.48 826.221 507.38 826.221 510.5V519.74C826.221 522.86 825.441 525.76 823.881 528.44C822.321 531.12 820.201 533.24 817.521 534.8C814.881 536.36 811.981 537.14 808.821 537.14C805.661 537.14 802.741 536.36 800.061 534.8C797.421 533.24 795.321 531.12 793.761 528.44C792.201 525.76 791.421 522.86 791.421 519.74V510.5ZM802.341 519.74C802.341 521.66 802.941 523.3 804.141 524.66C805.341 526.02 806.901 526.7 808.821 526.7C810.701 526.7 812.241 526.02 813.441 524.66C814.641 523.3 815.241 521.66 815.241 519.74V510.44C815.241 508.48 814.641 506.84 813.441 505.52C812.241 504.2 810.701 503.54 808.821 503.54C806.901 503.54 805.341 504.2 804.141 505.52C802.941 506.84 802.341 508.48 802.341 510.44V519.74ZM836.975 535.94V494.18H839.315L868.475 522.56V494.18H870.695V535.94H836.975ZM940.983 536V504.8H925.203V494.24H958.923V504.8H943.143V536H940.983ZM969.077 510.5C969.077 507.38 969.857 504.48 971.417 501.8C972.977 499.12 975.077 497 977.717 495.44C980.397 493.88 983.317 493.1 986.477 493.1C989.637 493.1 992.537 493.88 995.177 495.44C997.857 497 999.977 499.12 1001.54 501.8C1003.1 504.48 1003.88 507.38 1003.88 510.5V519.74C1003.88 522.86 1003.1 525.76 1001.54 528.44C999.977 531.12 997.857 533.24 995.177 534.8C992.537 536.36 989.637 537.14 986.477 537.14C983.317 537.14 980.397 536.36 977.717 534.8C975.077 533.24 972.977 531.12 971.417 528.44C969.857 525.76 969.077 522.86 969.077 519.74V510.5ZM979.997 519.74C979.997 521.66 980.597 523.3 981.797 524.66C982.997 526.02 984.557 526.7 986.477 526.7C988.357 526.7 989.897 526.02 991.097 524.66C992.297 523.3 992.897 521.66 992.897 519.74V510.44C992.897 508.48 992.297 506.84 991.097 505.52C989.897 504.2 988.357 503.54 986.477 503.54C984.557 503.54 982.997 504.2 981.797 505.52C980.597 506.84 979.997 508.48 979.997 510.44V519.74ZM1075.61 537.08C1069.81 537.08 1065.33 535.72 1062.17 533C1059.05 530.24 1057.51 526.12 1057.55 520.64H1067.33C1067.29 522.92 1067.97 524.66 1069.37 525.86C1070.77 527.06 1072.73 527.66 1075.25 527.66C1077.33 527.66 1078.97 527.32 1080.17 526.64C1081.37 525.96 1081.97 524.92 1081.97 523.52C1081.97 522.36 1081.35 521.52 1080.11 521C1078.91 520.48 1077.71 520.12 1076.51 519.92C1075.31 519.68 1074.57 519.54 1074.29 519.5C1071.21 518.9 1068.55 518.18 1066.31 517.34C1064.07 516.46 1062.19 515.14 1060.67 513.38C1059.15 511.62 1058.39 509.3 1058.39 506.42C1058.39 503.54 1059.15 501.1 1060.67 499.1C1062.19 497.06 1064.21 495.54 1066.73 494.54C1069.29 493.54 1072.07 493.04 1075.07 493.04C1078.71 493.04 1081.85 493.72 1084.49 495.08C1087.17 496.44 1089.27 498.5 1090.79 501.26C1091.55 502.58 1092.01 503.86 1092.17 505.1C1092.33 506.3 1092.41 507.48 1092.41 508.64H1082.63C1082.63 506.48 1082.05 504.9 1080.89 503.9C1079.73 502.86 1077.93 502.34 1075.49 502.34C1073.53 502.34 1072.01 502.68 1070.93 503.36C1069.85 504.04 1069.31 504.96 1069.31 506.12C1069.31 507.4 1070.03 508.34 1071.47 508.94C1072.91 509.54 1074.73 510.08 1076.93 510.56C1080.53 511.28 1083.33 511.98 1085.33 512.66C1087.37 513.3 1089.13 514.46 1090.61 516.14C1092.09 517.82 1092.83 520.18 1092.83 523.22C1092.83 526.1 1092.03 528.58 1090.43 530.66C1088.83 532.74 1086.71 534.34 1084.07 535.46C1081.47 536.54 1078.65 537.08 1075.61 537.08ZM1118.64 536V504.8H1102.86V494.24H1136.58V504.8H1120.8V536H1118.64ZM1183.81 536H1144.45L1164.13 493.34L1183.81 536ZM1147.93 533.78H1180.33L1164.13 498.62L1147.93 533.78ZM1225.83 536H1193.73V494.24H1209.99C1213.47 494.24 1216.31 494.86 1218.51 496.1C1220.67 497.3 1222.35 498.94 1223.55 501.02C1224.75 503.1 1225.35 505.4 1225.35 507.92C1225.35 511.04 1224.39 513.84 1222.47 516.32C1220.55 518.76 1218.13 520.38 1215.21 521.18L1225.83 536ZM1197.51 496.46L1213.83 519.26C1216.51 518.7 1218.73 517.36 1220.49 515.24C1222.25 513.12 1223.13 510.68 1223.13 507.92C1223.13 505.72 1222.59 503.72 1221.51 501.92C1220.43 500.12 1218.91 498.74 1216.95 497.78C1215.19 496.9 1212.89 496.46 1210.05 496.46H1197.51ZM1195.95 497.9V519.44H1211.37L1195.95 497.9ZM1195.95 533.78H1221.63L1212.87 521.6L1211.01 521.66H1195.95V533.78ZM1251.88 536V504.8H1236.1V494.24H1269.82V504.8H1254.04V536H1251.88Z" fill="white"/>
</svg>
