<svg width="1440" height="1024" viewBox="0 0 1440 1024" fill="none" xmlns="http://www.w3.org/2000/svg">
<path d="M386.928 512V400.64H433.488C441.274 400.64 447.994 402.08 453.648 404.96C460.154 408.267 465.328 413.013 469.168 419.2C473.008 425.28 474.928 432 474.928 439.36C474.928 446.72 473.008 453.493 469.168 459.68C465.434 465.867 460.314 470.613 453.808 473.92C448.261 476.8 441.487 478.24 433.488 478.24H416.048V512H386.928ZM594.805 512H489.845L542.325 398.24L594.805 512ZM499.125 506.08H585.525L542.325 412.32L499.125 506.08ZM660.763 514.4C652.656 514.4 645.136 512.373 638.203 508.32C631.376 504.267 625.936 498.827 621.883 492C617.829 485.067 615.803 477.547 615.803 469.44V400.64H705.723V469.44C705.723 477.547 703.696 485.067 699.643 492C695.589 498.827 690.096 504.267 683.163 508.32C676.336 512.373 668.869 514.4 660.763 514.4ZM780 514.88C764.533 514.88 752.587 511.253 744.16 504C735.84 496.64 731.733 485.653 731.84 471.04H757.92C757.813 477.12 759.627 481.76 763.36 484.96C767.093 488.16 772.32 489.76 779.04 489.76C784.587 489.76 788.96 488.853 792.16 487.04C795.36 485.227 796.96 482.453 796.96 478.72C796.96 475.627 795.307 473.387 792 472C788.8 470.613 785.6 469.653 782.4 469.12C779.2 468.48 777.227 468.107 776.48 468C768.267 466.4 761.173 464.48 755.2 462.24C749.227 459.893 744.213 456.373 740.16 451.68C736.107 446.987 734.08 440.8 734.08 433.12C734.08 425.44 736.107 418.933 740.16 413.6C744.213 408.16 749.6 404.107 756.32 401.44C763.147 398.773 770.56 397.44 778.56 397.44C788.267 397.44 796.64 399.253 803.68 402.88C810.827 406.507 816.427 412 820.48 419.36C822.507 422.88 823.733 426.293 824.16 429.6C824.587 432.8 824.8 435.947 824.8 439.04H798.72C798.72 433.28 797.173 429.067 794.08 426.4C790.987 423.627 786.187 422.24 779.68 422.24C774.453 422.24 770.4 423.147 767.52 424.96C764.64 426.773 763.2 429.227 763.2 432.32C763.2 435.733 765.12 438.24 768.96 439.84C772.8 441.44 777.653 442.88 783.52 444.16C793.12 446.08 800.587 447.947 805.92 449.76C811.36 451.467 816.053 454.56 820 459.04C823.947 463.52 825.92 469.813 825.92 477.92C825.92 485.6 823.787 492.213 819.52 497.76C815.253 503.307 809.6 507.573 802.56 510.56C795.627 513.44 788.107 514.88 780 514.88ZM857.638 400.64H938.758V428.8H886.758V442.88H929.958V469.6H886.758V483.84H938.758V512H857.638V400.64ZM976.075 512V400.64H1017.52C1025.62 400.64 1033.09 402.667 1039.92 406.72C1046.85 410.773 1052.34 416.267 1056.4 423.2C1060.45 430.027 1062.48 437.493 1062.48 445.6V467.04C1062.48 475.147 1060.45 482.667 1056.4 489.6C1052.34 496.427 1046.85 501.867 1039.92 505.92C1033.09 509.973 1025.62 512 1017.52 512H976.075Z" fill="white"/>
<path d="M626.238 750H594.138V708.24H610.398C613.878 708.24 616.718 708.86 618.918 710.1C621.078 711.3 622.758 712.94 623.958 715.02C625.158 717.1 625.758 719.4 625.758 721.92C625.758 725.04 624.798 727.84 622.878 730.32C620.958 732.76 618.538 734.38 615.618 735.18L626.238 750ZM597.918 710.46L614.238 733.26C616.918 732.7 619.138 731.36 620.898 729.24C622.658 727.12 623.538 724.68 623.538 721.92C623.538 719.72 622.998 717.72 621.918 715.92C620.838 714.12 619.318 712.74 617.358 711.78C615.598 710.9 613.298 710.46 610.458 710.46H597.918ZM596.358 711.9V733.44H611.778L596.358 711.9ZM596.358 747.78H622.038L613.278 735.6L611.418 735.66H596.358V747.78ZM638.372 708.24H668.792V718.8H649.292V724.08H665.492V734.1H649.292V739.44H668.792V750H638.372V708.24ZM698.086 751.08C692.286 751.08 687.806 749.72 684.646 747C681.526 744.24 679.986 740.12 680.026 734.64H689.806C689.766 736.92 690.446 738.66 691.846 739.86C693.246 741.06 695.206 741.66 697.726 741.66C699.806 741.66 701.446 741.32 702.646 740.64C703.846 739.96 704.446 738.92 704.446 737.52C704.446 736.36 703.826 735.52 702.586 735C701.386 734.48 700.186 734.12 698.986 733.92C697.786 733.68 697.046 733.54 696.766 733.5C693.686 732.9 691.026 732.18 688.786 731.34C686.546 730.46 684.666 729.14 683.146 727.38C681.626 725.62 680.866 723.3 680.866 720.42C680.866 717.54 681.626 715.1 683.146 713.1C684.666 711.06 686.686 709.54 689.206 708.54C691.766 707.54 694.546 707.04 697.546 707.04C701.186 707.04 704.326 707.72 706.966 709.08C709.646 710.44 711.746 712.5 713.266 715.26C714.026 716.58 714.486 717.86 714.646 719.1C714.806 720.3 714.886 721.48 714.886 722.64H705.106C705.106 720.48 704.526 718.9 703.366 717.9C702.206 716.86 700.406 716.34 697.966 716.34C696.006 716.34 694.486 716.68 693.406 717.36C692.326 718.04 691.786 718.96 691.786 720.12C691.786 721.4 692.506 722.34 693.946 722.94C695.386 723.54 697.206 724.08 699.406 724.56C703.006 725.28 705.806 725.98 707.806 726.66C709.846 727.3 711.606 728.46 713.086 730.14C714.566 731.82 715.306 734.18 715.306 737.22C715.306 740.1 714.506 742.58 712.906 744.66C711.306 746.74 709.186 748.34 706.546 749.46C703.946 750.54 701.126 751.08 698.086 751.08ZM742.2 750.9C739.16 750.9 736.34 750.14 733.74 748.62C731.18 747.1 729.14 745.06 727.62 742.5C726.1 739.9 725.34 737.08 725.34 734.04V708.24H759.06V734.04C759.06 737.08 758.3 739.9 756.78 742.5C755.26 745.06 753.2 747.1 750.6 748.62C748.04 750.14 745.24 750.9 742.2 750.9ZM769.754 708.18H772.154L786.734 733.98L801.254 708.18H803.474V749.94H769.754V708.18ZM771.974 747.78H801.254V712.68L787.754 736.44H785.654L771.974 712.32V747.78ZM816.028 708.24H846.448V718.8H826.948V724.08H843.148V734.1H826.948V739.44H846.448V750H816.028V708.24ZM653.252 767.1C656.412 767.1 659.312 767.88 661.952 769.44C664.632 771 666.752 773.12 668.312 775.8C669.872 778.44 670.652 781.34 670.652 784.5V793.68C670.652 796.08 670.152 798.44 669.152 800.76L674.972 806.46L667.592 814.14L662.012 808.68C659.252 810.28 656.332 811.08 653.252 811.08C650.092 811.08 647.172 810.3 644.492 808.74C641.852 807.18 639.752 805.08 638.192 802.44C636.632 799.76 635.852 796.84 635.852 793.68V784.5C635.852 781.34 636.632 778.44 638.192 775.8C639.752 773.12 641.852 771 644.492 769.44C647.172 767.88 650.092 767.1 653.252 767.1ZM646.772 793.68C646.772 795.44 647.392 796.96 648.632 798.24C649.912 799.52 651.432 800.16 653.192 800.16C654.952 800.16 656.452 799.52 657.692 798.24C658.972 796.96 659.612 795.44 659.612 793.68V784.5C659.612 782.74 658.972 781.24 657.692 780C656.452 778.76 654.952 778.14 653.192 778.14C651.432 778.14 649.912 778.76 648.632 780C647.392 781.24 646.772 782.74 646.772 784.5V793.68ZM697.786 810.9C694.746 810.9 691.926 810.14 689.326 808.62C686.766 807.1 684.726 805.06 683.206 802.5C681.686 799.9 680.926 797.08 680.926 794.04V768.24H714.646V794.04C714.646 797.08 713.886 799.9 712.366 802.5C710.846 805.06 708.786 807.1 706.186 808.62C703.626 810.14 700.826 810.9 697.786 810.9ZM728.7 778.8V768.24H755.7V778.8H743.28V799.44H755.7V810H728.7V799.44H741.12V778.8H728.7ZM785.534 810V778.8H769.754V768.24H803.474V778.8H787.694V810H785.534Z" fill="white"/>
</svg>
